<?xml version="1.0" encoding="utf-8"?>
<!-- Generator: Adobe Illustrator 19.2.0, SVG Export Plug-In . SVG Version: 6.00 Build 0)  -->
<svg version="1.1" id="Layer_1" xmlns="http://www.w3.org/2000/svg" xmlns:xlink="http://www.w3.org/1999/xlink" x="0px" y="0px"
	 viewBox="0 0 1920 1080" style="enable-background:new 0 0 1920 1080;" xml:space="preserve">
<style type="text/css">
	.st0{fill:#F8C09D;}
	.st1{fill:#D3222F;}
	.st2{fill:#F2F2F2;}
	.st3{fill:#FFFFFF;}
	.st4{fill:#F6AE8D;}
	.st5{fill:#754C24;}
	.st6{fill:#EF937E;}
	.st7{fill:#333333;}
	.st8{fill:#BC1E31;}
	.st9{fill:none;stroke:#CCCCCC;stroke-width:2;stroke-miterlimit:10;}
	.st10{fill:#B3B3B3;}
	.st11{fill:#CCCCCC;}
	.st12{fill:#E6E6E6;}
	.st13{fill:#AF4135;}
	.st14{fill:none;stroke:#333333;stroke-width:3;stroke-miterlimit:10;}
	.st15{fill:#F2F2F2;stroke:#F2F2F2;stroke-width:1.6376;stroke-miterlimit:10;}
</style>
<polygon class="st0" points="982.5,898.4 947.9,898.4 921.7,585 992.3,585 "/>
<path class="st1" d="M985.5,924.9c0,0-7.5-17-19.3-17.5c-11.7-0.5-17.7-4.9-17.7-4.9s0.6,7.6-10.7,17.7
	c-11.3,10.1-32.9,20.1-41.8,34.1c-10.2,15.9,4,21.3,23.1,19.7c22-1.9,27.5-6.2,35.8-15.5c8.3-9.3,21.4-5.4,28.6-10.4
	c4.6-3.3,3.9-12.5,3.9-15.6L985.5,924.9z"/>
<path class="st2" d="M986.1,898.4c0.4-2.8-2.9-5-5.9-3.8c-3.7,1.4-8.5,2.6-13.9,2.4c-6-0.3-11.7-1.5-15.9-2.7
	c-2.9-0.8-5.8,0.9-6.1,3.5c-0.3,2.3-1.1,5.2-3.2,8.8c-3.9,6.8-6,8.8-14.2,14.9c-7,5.2-25.8,16.2-29.9,22.7
	c-10.2,15.9-0.2,22.4,19,20.8c22-1.9,30.6-7.6,38.9-16.9c8.3-9.3,21.4-5.4,28.6-10.4c4.6-3.3,3.9-12.5,3.9-15.6L986.1,898.4z"/>
<path class="st3" d="M940.6,937c-1.2,1.7-4.1,1.9-5.5,0.3c-1.7-1.9-8.9-6.6-11.8-7.7c-1.6-0.6-2.9-1-4-1.2c-2-0.5-3-2.3-2.2-4
	l0.2-0.5c0.7-1.5,2.7-2.3,4.4-1.6c4.3,1.5,16.3,7.3,19,11.8C941.3,935,941.2,936.1,940.6,937L940.6,937z"/>
<path class="st3" d="M950.8,928.8c-1.2,1.7-4.1,1.9-5.5,0.3c-1.7-1.9-8.9-6.6-11.8-7.7c-1.6-0.6-2.9-1-4-1.2c-2-0.5-3-2.3-2.2-4
	l0.2-0.5c0.7-1.5,2.7-2.3,4.4-1.6c4.3,1.5,16.3,7.3,19,11.8C951.5,926.8,951.4,927.9,950.8,928.8L950.8,928.8z"/>
<path class="st3" d="M961.1,920.1c-1.2,1.7-4.1,1.9-5.5,0.3c-1.7-1.9-8.9-6.6-11.8-7.7c-1.6-0.6-2.9-1-4-1.2c-2-0.5-3-2.3-2.2-4
	l0.2-0.5c0.7-1.5,2.7-2.3,4.4-1.6c4.3,1.5,16.3,7.3,19,11.8C961.8,918.1,961.8,919.2,961.1,920.1L961.1,920.1z"/>
<path class="st1" d="M893.7,958.6c0,0,2-3.4,8-2.7c6,0.7,5.6,12.3,5.6,12.3s-4.3,0.2-9.5-3C892.6,962,893.7,958.6,893.7,958.6z"/>
<rect x="919.9" y="585.2" class="st1" width="73.8" height="169.6"/>
<polygon class="st0" points="1020.4,898.4 1055,898.4 1081.2,585 1010.6,585 "/>
<rect x="1009.2" y="585.2" class="st1" width="73.8" height="169.6"/>
<path class="st1" d="M1001.8,667h-1.4c-45,0-81.4-37.2-81.4-82.3V584h164v0.7C1083,629.8,1046.9,667,1001.8,667z"/>
<path class="st2" d="M1083.2,584.5c0,0-26.3,17.5-85.4,17.5c-59.1,0-78.9-17.5-78.9-17.5s-13.1-37.7-19.2-111.1
	c-6.1-73.4,0.6-113.1,0.6-113.1c-0.7-8.8,6.2-16.2,15.1-16.2h171.4c8.8,0,15.8,7.4,15.1,16.2c0,0,6.7,40.2,0.6,113.1
	C1096.4,546.1,1083.2,584.5,1083.2,584.5z"/>
<path class="st1" d="M964.1,344l-0.1,2.4c-0.1,20.2,16,36.7,36,37.2v0c21,0.5,38-15.9,38.1-36.7l0.1-2.8H964.1z"/>
<path class="st0" d="M1000.4,371.4L1000.4,371.4c-13.3-0.3-24-11.3-23.9-24.6l0.1-23.1l49,1.3l-0.1,22.1
	C1025.4,360.7,1014.1,371.7,1000.4,371.4z"/>
<path class="st4" d="M976,338.3c7.8,2.8,16.5,4.9,24.7,4.9c8.4,0,16.9-1,24.9-3.9l-0.1-14.4l-49-1.3L976,338.3z"/>
<path class="st0" d="M1003.9,334.8c-36.2-0.9-71.8-30.5-70.8-70.8l2.2-90.2c0.4-17.1,14.6-30.7,31.8-30.3l83.3,2
	c17.1,0.4,30.7,14.6,30.3,31.8l-2.2,90.2C1077.4,307.9,1040,335.7,1003.9,334.8z"/>
<rect x="924.3" y="178.1" transform="matrix(0.9997 2.519926e-02 -2.519926e-02 0.9997 5.3118 -23.4476)" class="st5" width="17.3" height="41.9"/>
<ellipse transform="matrix(2.446915e-02 -0.9997 0.9997 2.446915e-02 679.465 1158.8698)" class="st0" cx="933.5" cy="231.3" rx="20.7" ry="20.7"/>
<path class="st6" d="M929.3,234.1c0.1-4,3.5-7.2,7.5-7.1c1.1,0,2.2,0.3,3.1,0.8c-1.2-2.2-3.5-3.7-6.2-3.8c-4-0.1-7.4,3.1-7.5,7.1
	c-0.1,2.9,1.6,5.5,4,6.7C929.6,236.7,929.3,235.4,929.3,234.1z"/>
<path class="st6" d="M1037.7,239.2l-0.4,15c0,0.7,0.8,1.2,1.5,1.2l8.8,0.2c2.4,0.1,3.8-2.7,2.3-4.6l-9.9-12.5
	C1039.3,237.6,1037.7,238.1,1037.7,239.2z"/>
<ellipse transform="matrix(2.009490e-02 -0.9998 0.9998 2.009490e-02 757.0126 1231.5927)" class="st7" cx="1006.8" cy="229.6" rx="8.8" ry="5"/>
<ellipse transform="matrix(2.009490e-02 -0.9998 0.9998 2.009490e-02 817.9403 1296.309)" class="st7" cx="1070.3" cy="230.9" rx="8.8" ry="5"/>
<rect x="919.9" y="727.6" class="st2" width="73.8" height="11.1"/>
<rect x="1009.2" y="727.6" class="st2" width="73.8" height="11.1"/>
<path class="st1" d="M1079.6,181.8l-155.1-3.9v0c1-40.2,34.5-72,74.7-71l9.4,0.2C1048.8,108.1,1080.6,141.5,1079.6,181.8
	L1079.6,181.8z"/>
<path class="st8" d="M1107,198c2.7,3.4-0.5,8-4.9,7.1c-14.1-3.1-38.1-7.3-64.5-8c-23.6-0.6-45.2,1.8-59.6,4
	c-11.2,1.7-15.8-4.5-29.4-11l-24.1-12.2c0,0,35.1-7.7,83.9-6.5s71.2,10.4,71.2,10.4L1107,198z"/>
<g>
	<polyline class="st9" points="1025.6,344 999.7,473.6 976,344 	"/>
	<path class="st10" d="M1014.2,483c-0.4-5-4.8-9.4-10.2-9.4c-5.7,0-10.2,4.6-10.2,10.2c0,5.7,4.5,10.2,10.2,10.2c0.7,0,1-0.1,2-0.2
		l3,11.2l5-4.1L1014.2,483z"/>
	<path class="st11" d="M1009.2,483c-0.4-5-4.2-9.4-8.8-9.4c-4.9,0-8.8,4.6-8.8,10.2c0,5.7,3.9,10.2,8.7,10.2c0.6,0,0.7-0.1,1.7-0.2
		V505h7L1009.2,483z"/>
	<ellipse class="st12" cx="1000.4" cy="484.1" rx="5.5" ry="6.3"/>
</g>
<path class="st0" d="M805.1,407.2l112.4,2.9l0.4-66.4l-112.2,0.6c-17.6,0.1-31.6,14.6-31.3,32.1v0
	C774.8,393.2,788.3,406.8,805.1,407.2z"/>
<path class="st0" d="M833.6,380.9L833.6,380.9c-2.3,13.8-10.7,25.9-32.8,25.9s-156.1-32.3-156.1-32.3l0,0l7.6-36.1
	c0,0,141.2,6,155.6,6C822.4,344.4,836,366.5,833.6,380.9z"/>
<path class="st2" d="M843,409.5l0.7-66.8l70.5,0.7c18.5,0.2,33.3,15.3,33.1,33.8v0c-0.2,18.5-15.3,33.3-33.8,33.1L843,409.5z"/>
<path class="st0" d="M1122.2,486.4l-60.3-94.9l56.7-34.5l57.2,96.5c9,15.1,3.8,34.6-11.4,43.4l0,0
	C1149.8,505.1,1131.2,500.5,1122.2,486.4z"/>
<path class="st2" d="M1100.7,455l57-35l-36.9-60.1c-9.7-15.7-30.2-20.6-46-11v0c-15.7,9.7-20.6,30.2-11,46L1100.7,455z"/>
<path class="st1" d="M1017.3,924.9c0,0,7.5-17,19.3-17.5c11.7-0.5,17.7-4.9,17.7-4.9s-0.6,7.6,10.7,17.7
	c11.3,10.1,32.9,20.1,41.8,34.1c10.2,15.9-4,21.3-23.1,19.7c-22-1.9-27.5-6.2-35.8-15.5c-8.3-9.3-21.4-5.4-28.6-10.4
	c-4.6-3.3-3.9-12.5-3.9-15.6L1017.3,924.9z"/>
<path class="st2" d="M1016.8,898.4c-0.4-2.8,2.9-5,5.9-3.8c3.7,1.4,8.5,2.6,13.9,2.4c6-0.3,11.7-1.5,15.9-2.7
	c2.9-0.8,5.8,0.9,6.1,3.5c0.3,2.3,1.1,5.2,3.2,8.8c3.9,6.8,6,8.8,14.2,14.9c7,5.2,25.8,16.2,29.9,22.7c10.2,15.9,0.2,22.4-19,20.8
	c-22-1.9-30.6-7.6-38.9-16.9c-8.3-9.3-21.4-5.4-28.6-10.4c-4.6-3.3-3.9-12.5-3.9-15.6L1016.8,898.4z"/>
<path class="st3" d="M1062.3,937c1.2,1.7,4.1,1.9,5.5,0.3c1.7-1.9,8.9-6.6,11.8-7.7c1.6-0.6,2.9-1,4-1.2c2-0.5,3-2.3,2.2-4l-0.2-0.5
	c-0.7-1.5-2.7-2.3-4.4-1.6c-4.3,1.5-16.3,7.3-19,11.8C1061.6,935,1061.6,936.1,1062.3,937L1062.3,937z"/>
<path class="st3" d="M1052.1,928.8c1.2,1.7,4.1,1.9,5.5,0.3c1.7-1.9,8.9-6.6,11.8-7.7c1.6-0.6,2.9-1,4-1.2c2-0.5,3-2.3,2.2-4
	l-0.2-0.5c-0.7-1.5-2.7-2.3-4.4-1.6c-4.3,1.5-16.3,7.3-19,11.8C1051.4,926.8,1051.5,927.9,1052.1,928.8L1052.1,928.8z"/>
<path class="st3" d="M1041.7,920.1c1.2,1.7,4.1,1.9,5.5,0.3c1.7-1.9,8.9-6.6,11.8-7.7c1.6-0.6,2.9-1,4-1.2c2-0.5,3-2.3,2.2-4
	l-0.2-0.5c-0.7-1.5-2.7-2.3-4.4-1.6c-4.3,1.5-16.3,7.3-19,11.8C1041,918.1,1041.1,919.2,1041.7,920.1L1041.7,920.1z"/>
<path class="st1" d="M1109.2,958.6c0,0-2-3.4-8-2.7c-6,0.7-5.6,12.3-5.6,12.3s4.3,0.2,9.5-3S1109.2,958.6,1109.2,958.6z"/>
<path class="st13" d="M1003.1,291.9c0.2-7.2-0.7-15.8,4.9-21.3c0.7-0.7,1.6-1.4,2.5-1.8c3-1.2,5.2,0.3,7.8,1.5
	c2.7,1.3,5.6,2.3,8.6,2.9c6,1.3,12.4,1.3,18.4-0.2c3.7-0.9,7.3-2.4,11.1-1.9c4.4,0.6,6,8,6,11.6c0,5.5,0.8,14.9-5.6,17.5
	c-2.7,1.1-5.7,0.8-8.5,0.4c-2.7-0.4-5.4-0.9-7.8-2.1c-2.1-1.1-3.9-2.7-6.2-3.5c-3.5-1.3-7.5-0.4-11,1c-3.5,1.3-7,3.1-10.7,3.4
	C1008.1,299.8,1003,297.1,1003.1,291.9z"/>
<path class="st3" d="M1045.3,273.1c-6,1.5-12.4,1.6-18.4,0.2c-3-0.6-5.8-1.6-8.6-2.9c-2.6-1.2-4.8-2.8-7.8-1.5
	c-1,0.4-1.8,1.1-2.5,1.8c-1.7,1.7-2.8,3.6-3.5,5.7c3.9,2.1,13.6,6.4,27.6,6.7c11.6,0.3,23.1-1.2,30.2-2.3c-0.5-3.8-2.2-9.1-5.9-9.6
	C1052.7,270.7,1049,272.1,1045.3,273.1z"/>
<line class="st14" x1="997.6" y1="210.8" x2="1013.9" y2="214"/>
<line class="st14" x1="1061.6" y1="215.7" x2="1077.9" y2="212.4"/>
<path class="st6" d="M1034.9,288.1c-18.3-1.1-22.3,11.3-22.2,11.3c3.7-0.3,7.2-2,10.7-3.4s7.5-2.3,11-1c2.2,0.8,4,2.5,6.2,3.5
	c2.4,1.2,5.1,1.7,7.8,2.1C1049.6,300.9,1046.3,288.8,1034.9,288.1z"/>
<path class="st0" d="M1157.2,500.3L1157.2,500.3c-14,0.6-25.7-10.3-26.1-24.3l-4.3-149.9v0l36.9,0l17.2,146.3
	C1182.6,486.8,1171.7,499.7,1157.2,500.3z"/>
<path class="st0" d="M1155,333h-20.6c-7.3,0-13.3-6-13.3-13.3v-15.5c0-4.8,2.6-9.2,6.7-11.6l37.6-21.4v51.4
	C1165.4,328.3,1160.8,333,1155,333z"/>
<g>

		<ellipse transform="matrix(0.9928 -0.1199 0.1199 0.9928 -19.2693 151.7702)" class="st8" cx="1251.7" cy="236" rx="14.6" ry="14.6"/>
	<path class="st2" d="M1253,288.8c0,0-11.7-7.7-41-13.7c-29.3-5.9-39.6-2.7-39.6-2.7l-5.9-49.1c0,0,12,0.2,37.9-12
		c25.9-12.2,36.5-23,36.5-23L1253,288.8z"/>
	<path class="st1" d="M1257.2,288.3l-4.2,0.5l-12.1-100.4l4.2-0.5c4.4-0.5,8.5,2.6,9,7.1l10.2,84.3
		C1264.8,283.7,1261.6,287.8,1257.2,288.3z"/>
	<path class="st8" d="M1164.7,340.2l-6.1,0.7c-3.9,0.5-7.6-2-8.6-5.8c-1.6-6.1-4-16.1-5.5-28.8c-2.6-21.6,0.7-36.4,0.7-36.4l22-2.7
		c0,0-3.3,14.5-0.7,36.4c1.4,11.4,3.4,20.6,4.9,26.7C1172.6,335,1169.4,339.6,1164.7,340.2z"/>
	<path class="st1" d="M1156.1,274.4l16.3-2l-5.9-49l-16.3,2c-13.5,1.6-23.2,13.9-21.6,27.5v0C1130.3,266.4,1142.6,276,1156.1,274.4z
		"/>
	<path class="st15" d="M1313.9,174.5l-20,21.3c-0.4,0.4-1.1,0.5-1.5,0l0,0c-0.4-0.4-0.5-1.1,0-1.5l20-21.3c0.4-0.4,1.1-0.5,1.5,0
		l0,0C1314.3,173.4,1314.3,174.1,1313.9,174.5z"/>
	<path class="st15" d="M1331.2,201.8l-26.3,12.8c-0.5,0.3-1.2,0-1.4-0.5l0,0c-0.3-0.5,0-1.2,0.5-1.4l26.3-12.8
		c0.5-0.3,1.2,0,1.4,0.5l0,0C1331.9,200.9,1331.7,201.6,1331.2,201.8z"/>
	<path class="st15" d="M1328,288.8l-23.6-17.3c-0.5-0.3-1.1-0.2-1.5,0.2l0,0c-0.3,0.5-0.2,1.1,0.2,1.5l23.6,17.3
		c0.5,0.3,1.1,0.2,1.5-0.2l0,0C1328.6,289.8,1328.5,289.2,1328,288.8z"/>
	<path class="st15" d="M1339.5,259.2l-28.5-6.7c-0.6-0.1-1.1,0.2-1.3,0.8l0,0c-0.1,0.6,0.2,1.1,0.8,1.3l28.5,6.7
		c0.6,0.1,1.1-0.2,1.3-0.8l0,0C1340.4,259.9,1340,259.3,1339.5,259.2z"/>
	<path class="st15" d="M1340.3,230.7l-29,3.5c-0.6,0.1-1.1-0.3-1.2-0.9l0,0c-0.1-0.6,0.3-1.1,0.9-1.2l29-3.5
		c0.6-0.1,1.1,0.3,1.2,0.9l0,0C1341.3,230.1,1340.9,230.6,1340.3,230.7z"/>
</g>
<g>
	<path class="st0" d="M1156.8,282.7L1156.8,282.7c0.2,3.5,3.3,6.2,6.8,6l5.7-0.4c3.5-0.2,6.2-3.3,6-6.8l0,0c-0.2-3.5-3.3-6.2-6.8-6
		l-5.7,0.4C1159.3,276.2,1156.6,279.2,1156.8,282.7z"/>
	<path class="st0" d="M1157.9,295.6L1157.9,295.6c0.2,3.5,3.3,6.2,6.8,6l11.2-0.8c3.5-0.2,6.2-3.3,6-6.8l0,0c-0.2-3.5-3.3-6.2-6.8-6
		l-11.2,0.8C1160.4,289.1,1157.7,292.1,1157.9,295.6z"/>
	<path class="st0" d="M1158.5,308.3L1158.5,308.3c0.2,3.5,3.3,6.2,6.8,6l10.2-0.8c3.5-0.2,6.2-3.3,6-6.8l0,0c-0.2-3.5-3.3-6.2-6.8-6
		l-10.2,0.8C1161,301.8,1158.3,304.8,1158.5,308.3z"/>
	<path class="st0" d="M1159.6,321L1159.6,321c0.2,3.5,3.3,6.2,6.8,6l5.3-0.4c3.5-0.2,6.2-3.3,6-6.8v0c-0.2-3.5-3.3-6.2-6.8-6
		l-5.3,0.4C1162,314.4,1159.3,317.5,1159.6,321z"/>
</g>
<path class="st0" d="M1129.4,292.5l5.7,9.8l19-11.8c2.7-1.6,3.6-5.1,2-7.8l0,0c-1.6-2.7-5.1-3.6-7.8-2L1129.4,292.5z"/>
<g>
	<path class="st0" d="M634.6,387.9l-14.6-2.3l7-47.1c0.7-5,5.4-8.5,10.4-7.7l12.4,1.8c5.3,0.8,9,5.8,8.2,11.1l-4.4,30.1
		C652.2,382.9,643.7,389.2,634.6,387.9z"/>
	<path class="st0" d="M640.3,338.7L640.3,338.7c-0.6,4.1-4.4,6.9-8.4,6.3l-47.9-7.1c-4.1-0.6-6.9-4.4-6.3-8.4l0,0
		c0.6-4.1,4.4-6.9,8.4-6.3l47.9,7.1C638.1,330.8,640.9,334.6,640.3,338.7z"/>
	<path class="st4" d="M636.9,352.3l-0.1,0.6c-0.6,4.2-4.6,7.1-8.9,6.5l-16.6-2.4c-4.2-0.6-7.1-4.6-6.5-8.8l0.1-0.6
		c0.6-4.2,4.5-7.1,8.7-6.5l16.6,2.5C634.5,344.1,637.5,348.1,636.9,352.3z"/>
	<path class="st0" d="M635,353L635,353c-0.6,4.1-4.4,6.9-8.4,6.3l-17.1-2.5c-4.1-0.6-6.9-4.4-6.3-8.4v0c0.6-4.1,4.4-6.9,8.4-6.3
		l17.1,2.5C632.8,345.1,635.6,348.9,635,353z"/>
	<path class="st4" d="M632,379.6L632,379.6c-0.6,4.1-4.4,6.8-8.4,6.3l-15.7-2.3l2.2-14.7l15.7,2.3
		C629.8,371.8,632.6,375.6,632,379.6z"/>
	<path class="st0" d="M630.3,380.2L630.3,380.2c-0.6,3.7-4,6.3-7.7,5.8l-15.3-2.2c-3.7-0.6-6.3-4-5.8-7.7l0,0c0.6-3.7,4-6.3,7.7-5.8
		l15.3,2.2C628.3,373,630.9,376.5,630.3,380.2z"/>
	<path class="st4" d="M635.7,367.1l-0.1,0.8c-0.6,4.3-4.6,7.2-8.9,6.6l-16.4-2.4c-4.3-0.6-7.2-4.6-6.6-8.9l0.1-0.8
		c0.6-4.3,4.6-7.2,8.9-6.6l16.4,2.4C633.4,358.9,636.4,362.8,635.7,367.1z"/>
	<path class="st0" d="M634.1,367.3L634.1,367.3c-0.6,3.7-4,6.3-7.7,5.8l-18.3-2.7c-3.7-0.6-6.3-4-5.8-7.7v0c0.6-3.7,4-6.3,7.7-5.8
		l18.3,2.7C632.1,360.1,634.7,363.5,634.1,367.3z"/>
	<path class="st4" d="M655.2,346.6L655.2,346.6c-0.6,1.6-3.2,3.4-6,2.7l-16.3-4.9c-3.9-1.2-6.1-5.3-5-9.3v0c1.2-3.9,5.3-6.1,9.3-5
		l16.3,4.9C657.5,336.2,656.4,342.6,655.2,346.6z"/>
	<path class="st4" d="M636,328.6l1.1,0.2c4.5,0.8,7.7,4.4,7,8l-3.4,17.4c-1.3,4.8-5.2,7.9-9.8,7.1l-1.1-0.2c-4.5-0.8-7.5-5.5-6.3-11
		c0,0,0.8-4.8,3.3-11C628.7,334.6,631.5,327.7,636,328.6z"/>
	<path class="st0" d="M636.4,328.6L636.4,328.6c4,0.7,6.7,4.6,6,8.6l-3.1,16.1c-0.7,4-4.6,6.7-8.6,6l0,0c-4-0.7-6.7-4.6-6-8.6
		l3.1-16.1C628.5,330.6,632.4,327.9,636.4,328.6z"/>
	<path class="st0" d="M658.1,342.5L658.1,342.5c-1.2,3.9-5.3,6.1-9.3,5l-16.3-4.9c-3.9-1.2-6.1-5.3-5-9.3l0,0c1.2-3.9,5.3-6.1,9.3-5
		l16.3,4.9C657.1,334.4,659.3,338.5,658.1,342.5z"/>
</g>
</svg>
